<svg width="180" height="36" viewBox="0 0 180 36" fill="none" xmlns="http://www.w3.org/2000/svg">
  <defs>
    <linearGradient id="logoGradLight" x1="0" y1="0" x2="1" y2="1">
      <stop offset="0%" stop-color="#7c3aed"/>
      <stop offset="50%" stop-color="#6366f1"/>
      <stop offset="100%" stop-color="#06b6d4"/>
    </linearGradient>
  </defs>
  <!-- Slime blob icon with "R" cutout -->
  <path d="M4 18C4 10.268 10.268 4 18 4C25.732 4 32 10.268 32 18C32 22.5 29 26.5 25 28.5C22.5 29.7 20 30 18 30C13 30 8.5 27.5 5.5 24C4.5 22.5 4 20.5 4 18Z" fill="url(#logoGradLight)"/>
  <!-- "R" inside blob -->
  <path d="M13 22V12H17.5C19.5 12 21 13 21 15C21 17 19.5 18 17.5 18H16V22H13ZM16 16H17C17.5 16 18 15.5 18 15C18 14.5 17.5 14 17 14H16V16Z" fill="#ffffff"/>
  <!-- RIMURU text -->
  <text x="40" y="24" font-family="system-ui, -apple-system, sans-serif" font-size="15" font-weight="700" fill="#18181b" letter-spacing="1.5">RIMURU</text>
</svg>
